<svg height="512pt" viewBox="-37 0 512 512" width="512pt" xmlns="http://www.w3.org/2000/svg"><path d="m308.351562 191.039062-38.75-13.519531c7.160157 12.902344 11.6875 27.449219 12.878907 42.921875l15.03125-7.972656 39.097656 20.632812 39.8125-20.621093 26.097656 14.03125 27.601563-79.082031c14.71875-42.167969-7.621094-88.449219-49.792969-103.167969-39.359375-13.742188-82.308594 4.808593-99.808594 41.636719l57.511719 20.070312-9.882812 28.320312-57.96875-20.21875-9.910157 28.410157 57.960938 20.230469zm0 0"/><path d="m64.238281 212.488281 7.660157 4.101563c5.992187-52.691406 50.839843-93.75 105.113281-93.75.867187 0 1.738281.011718 2.609375.03125v-41.871094c0-44.660156-36.332032-81-81-81-42.75 0-77.882813 33.300781-80.792969 75.328125h58.460937v30h-58.667968v27.871094h58.667968v30h-58.667968v66.402343l6.71875 3.519532zm0 0"/><path d="m177.011719 152.839844c-41.800781 0-75.800781 34-75.800781 75.800781 0 1.238281.027343 2.46875.089843 3.6875l1.300781.691406 38.398438-20.550781 38.621094 20.191406.808594.417969 39.039062-20.589844 13.832031 7.273438 19.488281 10.226562c.011719-.449219.011719-.898437.011719-1.347656 0-13.441406-3.511719-26.0625-9.679687-37.019531v-.011719c-12.589844-22.398437-36.242188-37.800781-63.5-38.71875-.859375-.039063-1.742188-.050781-2.609375-.050781zm0 0"/><path d="m414.578125 267.050781-38.417969-20.652343-39.679687 20.550781-38.941407-20.539063-38.820312 20.578125-39.21875-20.597656-39 20.578125-39.339844-20.558594-38.558594 20.628906-38.601562-20.648437-39.761719 20.550781-24.238281-12.710937v50.199219h438v-49.929688zm0 0"/><path d="m0 334.429688h438v177.570312h-438zm0 0"/></svg>